<svg width="225" height="170" viewBox="0 0 225 170" fill="none" xmlns="http://www.w3.org/2000/svg">
<path d="M60.1198 128.087L40.1598 159.875L19.0255 128.087C7.28428 108.073 -1.18004 76.2848 40.1598 76.2848C83.6023 76.2848 69.5128 111.605 60.1198 128.087Z" stroke="black" stroke-width="8"/>
<path d="M210.408 130.442L190.448 162.229L169.313 130.442C157.572 110.427 149.108 78.6394 190.448 78.6394C233.89 78.6394 219.801 113.959 210.408 130.442Z" stroke="black" stroke-width="8"/>
<path d="M39.9202 110.427L66.9251 42.1542H76.3181L109.194 110.427H112.716L145.591 16.2412L151.462 16.2412L192.556 108.072" stroke="black" stroke-width="10" stroke-linecap="round"/>
<path d="M61.0544 27.7536H91.6491M141.912 3.30522H180.155C193.996 2.82584 202.883 14.2351 184.526 29.1918" stroke="black" stroke-width="5"/>
<path d="M41.0943 106.895L66.925 44.4971" stroke="#EB096D" stroke-width="3" stroke-linecap="round"/>
<path d="M108.019 109.25L76.318 44.4971" stroke="#565EA8" stroke-width="3" stroke-linecap="round"/>
<path d="M112.716 109.25L145.591 17.4186" stroke="#00BAF5" stroke-width="3" stroke-linecap="round"/>
<path d="M191.382 106.895L151.462 18.5959" stroke="#6CBD45" stroke-width="3" stroke-linecap="round"/>
</svg>
